<svg id="Layer_1" data-name="Layer 1" xmlns="http://www.w3.org/2000/svg" viewBox="0 0 158.19 124.36"><defs><style>.cls-1{fill:#fffaf0;}</style></defs><path class="cls-1" d="M229.75,422.27h3.32l12.53-14.08h6l-12.79,14.18,13,14.81h-6.16l-12.58-14.55h-3.32v14.55h-5V397h5Z" transform="translate(-224.78 -364.66)"/><path class="cls-1" d="M252.43,431.18a6,6,0,0,1,3.06-5.49,19.44,19.44,0,0,1,6.37-2.54c1.71-.47,3.83-.88,5.69-1.29,3.84-.78,7.25-1.61,7.25-3.73,0-3.47-2-6.22-7.66-6.22-4.76,0-8.08,1.92-10.2,6.42l-4.4-2.48c3.16-5.39,8-8.23,14.7-8.23,8.18,0,12.22,3.88,12.22,10.56v12.43c0,2,.62,2.53,2.13,2.53a2.93,2.93,0,0,0,1.76-.41v4.35a8.19,8.19,0,0,1-3.37.62c-3.57,0-5.38-1.66-5.38-6,0-1,.1-5.23.1-6.83-1.76,7-7,12.94-13.72,12.94C254.92,437.8,252.43,434.8,252.43,431.18Zm5-2.18c0,2.69,2.12,4.56,6.47,4.56,5.18,0,9.58-3,10.87-10.1v-4.19c-1,1.76-4.19,2.43-7.92,3.21C261,423.62,257.46,424.76,257.46,429Z" transform="translate(-224.78 -364.66)"/><path class="cls-1" d="M286.14,397h5v23.51c1.25-8.7,5.49-12.89,11.6-12.89,7.15,0,11,4.55,11,11.7v17.86h-4.87V420.82c0-5.54-2.33-9-8.39-9-4.86,0-8.07,2.64-9.32,9.11v16.26h-5Z" transform="translate(-224.78 -364.66)"/><path class="cls-1" d="M317.21,431.18a6.06,6.06,0,0,1,3.05-5.49,19.44,19.44,0,0,1,6.37-2.54c1.71-.47,3.84-.88,5.7-1.29,3.83-.78,7.25-1.61,7.25-3.73,0-3.47-2-6.22-7.66-6.22-4.77,0-8.08,1.92-10.21,6.42l-4.4-2.48c3.16-5.39,8-8.23,14.71-8.23,8.18,0,12.22,3.88,12.22,10.56v12.43c0,2,.62,2.53,2.12,2.53a2.91,2.91,0,0,0,1.76-.41v4.35a8.14,8.14,0,0,1-3.36.62c-3.58,0-5.39-1.66-5.39-6,0-1,.11-5.23.11-6.83-1.77,7-7.05,12.94-13.73,12.94C319.7,437.8,317.21,434.8,317.21,431.18Zm5-2.18c0,2.69,2.12,4.56,6.47,4.56,5.18,0,9.58-3,10.88-10.1v-4.19c-1,1.76-4.2,2.43-7.92,3.21C325.8,423.62,322.23,424.76,322.23,429Z" transform="translate(-224.78 -364.66)"/><path class="cls-1" d="M357.91,437.18H353l-5.64-29h5.12l3.42,18.59,1.81,9.37,2.39-9.37,4.71-18h.31l4.3,18,2.22,9.32,2.07-9.32,4.2-18.59h5l-6.73,29h-4.76L367.13,419,365,409.89,362.67,419Z" transform="translate(-224.78 -364.66)"/><path class="cls-1" d="M320.54,396.7,293.2,369.58a1,1,0,0,1,.35-1.62l8.41-3.23a1,1,0,0,1,1.19.4l18.92,30.35A1,1,0,0,1,320.54,396.7Z" transform="translate(-224.78 -364.66)"/><path class="cls-1" d="M355.35,457l27.33,27.13a1,1,0,0,1-.34,1.62L373.93,489a1,1,0,0,1-1.2-.4L353.81,458.2A1,1,0,0,1,355.35,457Z" transform="translate(-224.78 -364.66)"/><path class="cls-1" d="M272.43,454.87l-16.94,16.81a.61.61,0,0,0,.21,1l5.21,2a.61.61,0,0,0,.74-.25l11.73-18.81A.61.61,0,0,0,272.43,454.87Z" transform="translate(-224.78 -364.66)"/></svg>